HIERARCHY
ROOT Hips
{
    OFFSET 0.0 0.0 0.0
    CHANNELS 6 Xposition Yposition Zposition Zrotation Xrotation Yrotation
    JOINT LeftHipJoint
    {
        OFFSET 0.1 0.0 0.0
        CHANNELS 3 Zrotation Xrotation Yrotation
        JOINT LeftUpLeg
        {
            OFFSET 123.11278546786116 0.0 0.0
            CHANNELS 3 Zrotation Xrotation Yrotation
            JOINT LeftLeg
            {
                OFFSET 0.0 0.0 -412.5461965458618
                CHANNELS 3 Zrotation Xrotation Yrotation
                JOINT LeftFoot
                {
                    OFFSET 0.0 0.0 -387.20731833568334
                    CHANNELS 3 Zrotation Xrotation Yrotation
                    End Site
                    {
                        OFFSET 0.0 -0.1 0.0
                    }
                }
            }
        }
    }
    JOINT LowerBack
    {
        OFFSET 0.0 0.0 0.1
        CHANNELS 3 Zrotation Xrotation Yrotation
        JOINT Spine
        {
            OFFSET 0.0 0.0 213.80919839724848
            CHANNELS 3 Zrotation Xrotation Yrotation
            JOINT Spine1
            {
                OFFSET 0.0 0.0 253.05247650208455
                CHANNELS 3 Zrotation Xrotation Yrotation
                JOINT LeftShoulder
                {
                    OFFSET 0.1 0.0 0.0
                    CHANNELS 3 Zrotation Xrotation Yrotation
                    JOINT LeftArm
                    {
                        OFFSET 140.0552358909119 0.0 0.0
                        CHANNELS 3 Zrotation Xrotation Yrotation
                        JOINT LeftForeArm
                        {
                            OFFSET 259.7760562285014 0.0 0.0
                            CHANNELS 3 Zrotation Xrotation Yrotation
                            JOINT LeftHand
                            {
                                OFFSET 243.91331885667023 0.0 0.0
                                CHANNELS 3 Zrotation Xrotation Yrotation
                                End Site
                                {
                                    OFFSET 0.1 0.0 0.0
                                }
                            }
                        }
                    }
                }
                JOINT Neck
                {
                    OFFSET 0.0 0.0 0.1
                    CHANNELS 3 Zrotation Xrotation Yrotation
                    JOINT Neck1
                    {
                        OFFSET 0.0 0.0 106.79888624778567
                        CHANNELS 3 Zrotation Xrotation Yrotation
                        End Site
                        {
                            OFFSET 0.0 0.0 116.80380681127909
                        }
                    }
                }
                JOINT RightShoulder
                {
                    OFFSET -0.1 0.0 0.0
                    CHANNELS 3 Zrotation Xrotation Yrotation
                    JOINT RightArm
                    {
                        OFFSET -140.0552358909119 0.0 0.0
                        CHANNELS 3 Zrotation Xrotation Yrotation
                        JOINT RightForeArm
                        {
                            OFFSET -259.7760562285014 0.0 0.0
                            CHANNELS 3 Zrotation Xrotation Yrotation
                            JOINT RightHand
                            {
                                OFFSET -243.91331885667023 0.0 0.0
                                CHANNELS 3 Zrotation Xrotation Yrotation
                                End Site
                                {
                                    OFFSET -0.1 0.0 0.0
                                }
                            }
                        }
                    }
                }
            }
        }
    }
    JOINT RightHipJoint
    {
        OFFSET -0.1 0.0 0.0
        CHANNELS 3 Zrotation Xrotation Yrotation
        JOINT RightUpLeg
        {
            OFFSET -123.11278546786116 0.0 0.0
            CHANNELS 3 Zrotation Xrotation Yrotation
            JOINT RightLeg
            {
                OFFSET 0.0 0.0 -412.5461965458618
                CHANNELS 3 Zrotation Xrotation Yrotation
                JOINT RightFoot
                {
                    OFFSET 0.0 0.0 -387.20731833568334
                    CHANNELS 3 Zrotation Xrotation Yrotation
                    End Site
                    {
                        OFFSET 0.0 -0.1 0.0
                    }
                }
            }
        }
    }
}
MOTION
Frames: 4
Frame Time: 0.03333333333333333
0.0 0.0 784.5186090974271 17.579959707454854 -6.241323427420448 4.723098209575422 0.0 0.0 3.9756933518293955e-16 0.07808757692601513 0.5458346596830665 0.09325974920576167 2.9305030810644297 19.42481018568133 -0.5611544570672543 -3.1805546814635168e-15 -2.2069531490250793e-32 7.951386703658792e-16 0.0 0.0 3.9756933518293955e-16 0.019163832079025847 0.13367261964416782 -2.5771365705739715 -4.453948935231147 1.923444008069329e-15 -2.2360421208568424e-16 0.0 -7.951386703658791e-16 0.0 -5.350364930715935 -44.236473807073445 44.63825714094048 -125.15373865521077 8.575969345586907e-15 2.71664764697036e-15 0.0 0.0 0.0 0.0 -7.951386703658791e-16 0.0 7.835664899775873 -8.52773977031808 -7.857001191608961 0.0 -7.951386703658791e-16 0.0 23.713187500148013 23.40266655228828 -78.21467096984958 32.054838706760876 -8.449947955646006e-16 2.0097838368009837e-14 6.361109362927035e-15 -3.1805546814635176e-15 -1.5902773407317584e-15 0.0 0.0 3.9756933518293955e-16 -0.9706890287561241 -6.737577665391731 -4.36442272436155 2.2361709298283494 30.076707390315036 2.311018650258659 0.0 0.0 -7.951386703658792e-16
0.0 0.0 784.5186090974271 17.605662865473786 -6.326298235737433 4.701820384976609 0.0 0.0 0.0 0.09607823497236004 0.6732684492577868 0.15730609630627757 2.900032038381813 19.145631371124377 -0.5988248462342262 0.0 0.0 0.0 0.0 0.0 0.0 0.01932519622427647 0.13516626730798226 -2.541152574981441 -4.402800587015119 1.4516058882394611e-16 1.0504580195664321e-16 0.0 -1.2424041724466862e-17 0.0 -5.3400628719484144 -44.211645068718866 44.565172848125485 -124.75349705202672 8.322718729212257e-15 -1.1534769810880896e-14 0.0 0.0 0.0 0.0 -1.2424041724466862e-17 0.0 7.824325836413606 -8.492530357420712 -7.822048711440915 0.0 -1.2424041724466862e-17 0.0 23.561466488338205 23.42257884452217 -78.15650420412958 32.14206411899663 -7.458602836344948e-15 -1.4400811569350317e-14 0.0 0.0 -2.3854160110976376e-15 0.0 0.0 0.0 -0.968572471215854 -6.741271330891418 -4.389577656254874 2.1902742082125783 29.86887852397873 2.367138877334886 -6.896728590703373e-34 1.9878466759146977e-16 3.9756933518293955e-16
0.0 0.0 784.5186090974271 17.671154839224965 -6.312838655358849 4.65953279369309 0.0 0.0 0.0 0.10245667495614812 0.725461417946466 0.25582535406971785 2.8510592935060313 18.825149324185197 -0.6487432703898028 0.0 0.0 0.0 0.0 0.0 0.0 0.015759434609972797 0.11146282264940757 -2.4728307210134335 -4.364564407721863 -1.1190159195330893e-15 6.536095889620864e-16 0.0 7.827146286414123e-16 0.0 -5.336381283386001 -44.14300273649027 44.397825548771685 -124.41976065249513 -2.6616617853185413e-15 8.593193887886557e-15 -3.1805546814635168e-15 0.0 0.0 0.0 7.827146286414123e-16 0.0 7.778521330547074 -8.475965887285486 -7.788162449248046 0.0 7.827146286414123e-16 0.0 23.478592528568186 23.554890523948433 -78.15502276918507 32.33539921468644 -8.856244901961221e-16 -3.0547663321675436e-15 0.0 0.0 1.5902773407317584e-15 0.0 0.0 0.0 -0.9589821350759337 -6.748839537149074 -4.415424332587058 2.1062657541506438 29.666036870162 2.5359554896589827 -1.3793457181406746e-33 1.9878466759146977e-16 7.951386703658791e-16
0.0 0.0 784.5186090974271 17.64394811194238 -6.334553397212298 4.658513928317507 0.0 0.0 -1.987846675914698e-16 0.11585555696646022 0.8200570378016224 0.2853529896466379 2.816281118909026 18.54976909707328 -0.5505831953421797 0.0 0.0 0.0 0.0 0.0 -1.987846675914698e-16 0.015483007136899821 0.10951346105331038 -2.466612536052245 -4.335248759753429 -5.921679487012436e-16 -1.2187720530675325e-16 0.0 0.0 0.0 -5.229648455000853 -44.18814412561366 44.37737711189308 -124.14139052045621 0.0 -0.0 -3.1805546814635168e-15 0.0 0.0 0.0 0.0 0.0 7.793710998927643 -8.410775260458944 -7.748215428261702 0.0 0.0 0.0 23.31731066595326 23.49235575087961 -78.0419420884351 32.5361229349872 4.454869973364363e-16 1.5266051734646517e-15 0.0 0.0 7.951386703658792e-16 0.0 0.0 -1.987846675914698e-16 -0.9730935082537624 -6.847318414915767 -4.437946948308628 2.092534633419958 29.647710487159948 2.6291558710812506 0.0 0.0 3.975693351829396e-16
